<svg width="50" height="50" viewBox="0 0 50 50" fill="none" xmlns="http://www.w3.org/2000/svg">
<circle cx="25" cy="25" r="24.5" fill="#0A0A0B"/>
<path d="M24.8203 26.5371C24.627 28.1914 24.0146 29.4697 22.9834 30.3721C21.9593 31.2673 20.5951 31.7148 18.8906 31.7148C17.043 31.7148 15.5605 31.0524 14.4434 29.7275C13.3333 28.4027 12.7783 26.6302 12.7783 24.4102V22.9062C12.7783 21.4525 13.0361 20.1742 13.5518 19.0713C14.0745 17.9684 14.8122 17.1234 15.7646 16.5361C16.7171 15.9417 17.82 15.6445 19.0732 15.6445C20.7347 15.6445 22.0667 16.11 23.0693 17.041C24.0719 17.9648 24.6556 19.2467 24.8203 20.8867H22.7471C22.568 19.6406 22.1777 18.7383 21.5762 18.1797C20.9818 17.6211 20.1475 17.3418 19.0732 17.3418C17.7555 17.3418 16.7207 17.8288 15.9688 18.8027C15.224 19.7767 14.8516 21.1624 14.8516 22.96V24.4746C14.8516 26.1719 15.2061 27.5218 15.915 28.5244C16.624 29.527 17.6159 30.0283 18.8906 30.0283C20.0365 30.0283 20.9137 29.7705 21.5225 29.2549C22.1383 28.7321 22.5465 27.8262 22.7471 26.5371H24.8203ZM29.3213 21.2842C30.2021 20.2028 31.348 19.6621 32.7588 19.6621C35.2152 19.6621 36.4541 21.0479 36.4756 23.8193V31.5H34.4883V23.8086C34.4811 22.9707 34.2878 22.3512 33.9082 21.9502C33.5358 21.5492 32.9521 21.3486 32.1572 21.3486C31.5127 21.3486 30.9469 21.5205 30.46 21.8643C29.973 22.208 29.5934 22.6592 29.3213 23.2178V31.5H27.334V15H29.3213V21.2842Z" fill="white"/>
</svg>
